<svg width="18" height="18" viewBox="0 0 18 18" fill="none" xmlns="http://www.w3.org/2000/svg">
  <path fill-rule="evenodd" clip-rule="evenodd"
    d="M0.75 18C0.335786 18 -1.46777e-08 17.6642 -3.27835e-08 17.25L-7.54021e-07 0.75C-7.72127e-07 0.335787 0.335786 -1.46777e-08 0.749999 -3.27835e-08C1.16421 -5.08894e-08 1.5 0.335787 1.5 0.75L1.5 17.25C1.5 17.6642 1.16421 18 0.75 18ZM3.20385 9.51402C2.93205 9.22523 2.93205 8.77476 3.20385 8.48598L7.20385 4.23598C7.48774 3.93435 7.96239 3.91996 8.26402 4.20385C8.56565 4.48774 8.58004 4.96239 8.29615 5.26402L5.48582 8.25L17.25 8.25C17.6642 8.25 18 8.58579 18 9C18 9.41421 17.6642 9.75 17.25 9.75L5.48582 9.75L8.29615 12.736C8.58004 13.0376 8.56565 13.5123 8.26402 13.7961C7.96239 14.08 7.48774 14.0657 7.20385 13.764L3.20385 9.51402Z"
    fill="white" />
</svg>