<svg width="16" height="18" viewBox="0 0 16 18" fill="none" xmlns="http://www.w3.org/2000/svg">
  <path fill-rule="evenodd" clip-rule="evenodd"
    d="M2.5596 4.17575C2.80564 1.70281 4.92285 0 7.36574 0H8.63281C11.0757 0 13.1929 1.70281 13.4389 4.17575L13.4393 4.17969L13.8626 8.67575C13.8627 8.67642 13.8628 8.67709 13.8628 8.67776C14.0019 10.0707 14.6033 11.477 15.553 12.4859C16.072 13.0373 16.0765 13.801 15.8751 14.3479C15.6732 14.8963 15.1551 15.5 14.3402 15.5H10.9578C10.7198 16.9189 9.48578 18 7.99928 18C6.51278 18 5.2788 16.9189 5.04076 15.5H1.65834C0.843445 15.5 0.325376 14.8963 0.123429 14.3479C-0.0779242 13.801 -0.0734133 13.0373 0.445563 12.4859C1.39529 11.477 1.99669 10.0707 2.13571 8.67767L2.5596 4.17575ZM14.3402 14C14.344 14 14.345 13.9996 14.3462 13.9991C14.3483 13.9983 14.3565 13.9948 14.3695 13.9838C14.3979 13.9597 14.4382 13.909 14.4675 13.8296C14.4965 13.7508 14.5043 13.6712 14.4963 13.6092C14.4887 13.5498 14.47 13.5239 14.4608 13.5141C13.2648 12.2436 12.5386 10.5187 12.37 8.82425L12.3696 8.82031L11.9463 4.32425C11.9462 4.3236 11.9462 4.32295 11.9461 4.3223C11.7835 2.69827 10.3881 1.5 8.63281 1.5H7.36574C5.61047 1.5 4.21498 2.69831 4.05242 4.32238C4.05236 4.323 4.0523 4.32363 4.05223 4.32425L3.62854 8.82425C3.45996 10.5187 2.73374 12.2436 1.53778 13.5141C1.52853 13.5239 1.50982 13.5498 1.50222 13.6092C1.49426 13.6712 1.50203 13.7508 1.53104 13.8296C1.5603 13.909 1.6006 13.9597 1.62909 13.9838C1.64205 13.9948 1.65011 13.9983 1.65222 13.9991C1.65347 13.9996 1.65444 14 1.65834 14H14.3402ZM6.58463 15.5C6.79055 16.0826 7.34617 16.5 7.99928 16.5C8.65239 16.5 9.20801 16.0826 9.41393 15.5H6.58463Z"
    fill="white" />
</svg>