<svg width="19" height="18" viewBox="0 0 19 18" fill="none" xmlns="http://www.w3.org/2000/svg">
  <path fill-rule="evenodd" clip-rule="evenodd"
    d="M7.24854 2.25C7.24854 1.00736 8.25589 0 9.49854 0H10.4985C11.7412 0 12.7485 1.00736 12.7485 2.25V2.36087L12.827 2.28244C13.7056 1.40376 15.1303 1.40376 16.0089 2.28244L16.716 2.98955C17.5947 3.86823 17.5947 5.29285 16.716 6.17153L16.6376 6.25H16.7485C17.9912 6.25 18.9985 7.25736 18.9985 8.5V9.5C18.9985 10.7426 17.9912 11.75 16.7485 11.75H16.6376L16.7161 11.8284C17.5947 12.7071 17.5947 14.1317 16.7161 15.0104L16.0089 15.7175C15.1303 16.5962 13.7056 16.5962 12.827 15.7175L12.7485 15.6391V15.75C12.7485 16.9926 11.7412 18 10.4985 18H9.49854C8.25589 18 7.24854 16.9926 7.24854 15.75V15.639L7.17011 15.7175C6.29143 16.5962 4.86681 16.5962 3.98813 15.7175L3.28102 15.0104C2.40234 14.1317 2.40234 12.7071 3.28102 11.8284L3.35941 11.75H3.24854C2.00589 11.75 0.998535 10.7426 0.998535 9.5L0.998535 8.5C0.998535 7.25736 2.0059 6.25 3.24854 6.25H3.35943L3.28103 6.17159C2.40235 5.29291 2.40234 3.86829 3.28103 2.98961L3.98813 2.2825C4.86681 1.40382 6.29143 1.40382 7.17011 2.2825L7.24854 2.36092V2.25ZM9.49854 1.5C9.08432 1.5 8.74854 1.83579 8.74854 2.25V2.96448C8.74854 4.07811 7.40211 4.63582 6.61465 3.84836L6.10945 3.34316C5.81656 3.05027 5.34169 3.05027 5.04879 3.34316L4.34169 4.05027C4.04879 4.34316 4.04879 4.81804 4.34169 5.11093L4.84687 5.61612C5.63433 6.40357 5.07662 7.75 3.96299 7.75L3.24854 7.75C2.83432 7.75 2.49854 8.08578 2.49854 8.5V9.5C2.49854 9.91421 2.83432 10.25 3.24854 10.25H3.96296C5.07659 10.25 5.6343 11.5964 4.84684 12.3839L4.34168 12.889C4.04879 13.1819 4.04879 13.6568 4.34168 13.9497L5.04879 14.6568C5.34168 14.9497 5.81655 14.9497 6.10945 14.6568L6.61465 14.1516C7.40211 13.3642 8.74854 13.9219 8.74854 15.0355V15.75C8.74854 16.1642 9.08432 16.5 9.49854 16.5H10.4985C10.9127 16.5 11.2485 16.1642 11.2485 15.75V15.0355C11.2485 13.9219 12.595 13.3642 13.3824 14.1517L13.8876 14.6569C14.1805 14.9498 14.6554 14.9498 14.9483 14.6569L15.6554 13.9498C15.9483 13.6569 15.9483 13.182 15.6554 12.8891L15.1502 12.3839C14.3627 11.5964 14.9204 10.25 16.0341 10.25H16.7485C17.1627 10.25 17.4985 9.91421 17.4985 9.5V8.5C17.4985 8.08579 17.1627 7.75 16.7485 7.75L16.034 7.75C14.9204 7.75 14.3627 6.40357 15.1501 5.61612L15.6554 5.11087C15.9483 4.81798 15.9483 4.3431 15.6554 4.05021L14.9483 3.3431C14.6554 3.05021 14.1805 3.05021 13.8876 3.3431L13.3824 3.84831C12.595 4.63576 11.2485 4.07806 11.2485 2.96442V2.25C11.2485 1.83579 10.9127 1.5 10.4985 1.5H9.49854ZM9.99854 7C8.89397 7 7.99854 7.89543 7.99854 9C7.99854 10.1046 8.89397 11 9.99854 11C11.1031 11 11.9985 10.1046 11.9985 9C11.9985 7.89543 11.1031 7 9.99854 7ZM6.49854 9C6.49854 7.067 8.06554 5.5 9.99854 5.5C11.9315 5.5 13.4985 7.067 13.4985 9C13.4985 10.933 11.9315 12.5 9.99854 12.5C8.06554 12.5 6.49854 10.933 6.49854 9Z"
    fill="white" />
</svg>